<svg width="128" height="32" viewBox="0 0 128 32" fill="none" xmlns="http://www.w3.org/2000/svg">
<path d="M11 7C8.239 7 6 9.23669 6 11.9962C6 14.2238 6.875 19.5107 15.488 24.8551C15.6423 24.9499 15.8194 25 16 25C16.1806 25 16.3577 24.9499 16.512 24.8551C25.125 19.5107 26 14.2238 26 11.9962C26 9.23669 23.761 7 21 7C18.239 7 16 10.028 16 10.028C16 10.028 13.761 7 11 7Z" stroke="black" stroke-width="1.5" stroke-linecap="round" stroke-linejoin="round"/>
<circle cx="24" cy="9" r="8" fill="#DB4444"/>
<path d="M20.2066 11.068V10.24L24.4186 4.408H25.7266V10.12H26.9266V11.068H25.7266V13H24.6466V11.068H20.2066ZM24.6946 5.548L21.4666 10.12H24.6946V5.548Z" fill="#FAFAFA"/>
<path d="M56.25 20.25C56.6642 20.25 57 19.9142 57 19.5C57 19.0858 56.6642 18.75 56.25 18.75C55.8358 18.75 55.5 19.0858 55.5 19.5C55.5 19.9142 55.8358 20.25 56.25 20.25Z" stroke="black" stroke-width="1.5" stroke-linecap="round" stroke-linejoin="round"/>
<path d="M66.75 20.25C67.1642 20.25 67.5 19.9142 67.5 19.5C67.5 19.0858 67.1642 18.75 66.75 18.75C66.3358 18.75 66 19.0858 66 19.5C66 19.9142 66.3358 20.25 66.75 20.25Z" stroke="black" stroke-width="1.5" stroke-linecap="round" stroke-linejoin="round"/>
<path d="M50.25 3.75H53.25L55.5 16.5H67.5" stroke="black" stroke-width="1.5" stroke-linecap="round" stroke-linejoin="round"/>
<path d="M55.5 12.5H67.1925C67.2792 12.5001 67.3633 12.4701 67.4304 12.4151C67.4975 12.3601 67.5434 12.2836 67.5605 12.1986L68.9105 5.44859C68.9214 5.39417 68.92 5.338 68.9066 5.28414C68.8931 5.23029 68.8679 5.18009 68.8327 5.13717C68.7975 5.09426 68.7532 5.05969 68.703 5.03597C68.6528 5.01225 68.598 4.99996 68.5425 5H54" stroke="black" stroke-width="1.5" stroke-linecap="round" stroke-linejoin="round"/>
<path d="M120 27V24.3333C120 22.9188 119.522 21.5623 118.672 20.5621C117.822 19.5619 116.669 19 115.467 19H107.533C106.331 19 105.178 19.5619 104.328 20.5621C103.478 21.5623 103 22.9188 103 24.3333V27" stroke="black" stroke-width="1.5" stroke-linecap="round" stroke-linejoin="round"/>
<path d="M112.5 14C114.985 14 117 11.9853 117 9.5C117 7.01472 114.985 5 112.5 5C110.015 5 108 7.01472 108 9.5C108 11.9853 110.015 14 112.5 14Z" stroke="black" stroke-width="1.5" stroke-linecap="round" stroke-linejoin="round"/>
</svg>
